<svg width="80" height="75" viewBox="0 0 80 75" fill="none" xmlns="http://www.w3.org/2000/svg">
<g clip-path="url(#clip0_13_10)">
<path d="M24.3908 10.7011C15.1149 16.5834 7.28705 21.5833 7.03818 21.8095C6.5857 22.2167 6.56308 22.4656 6.56308 26.9678C6.56308 31.3794 6.5857 31.6962 7.01556 32.126C7.53591 32.6464 7.89789 32.6916 8.44087 32.2844C8.78023 32.0582 8.82547 31.4247 8.87072 27.6012L8.93859 23.1896L25.3183 12.8504C35.2729 6.56094 41.8112 2.55651 41.9696 2.66963C42.128 2.76013 49.5486 7.39803 58.4625 13.0088L74.6388 23.1896L74.6612 31.945C74.6612 39.5919 74.7064 40.7458 75.0231 41.0399C75.4986 41.515 76.0868 41.4923 76.5393 40.9946C76.8783 40.61 76.9236 39.6146 76.9236 31.4247C76.9236 26.4022 76.8331 22.1715 76.7426 22.0131C76.4488 21.5606 42.0827 0 41.6755 0C41.4719 0.022624 33.6892 4.8189 24.3908 10.7011Z" fill="black"/>
<path d="M34.5 21.5L41.5 27L44 19L41 16.5L38.5 18.5L36 18L34.5 21.5Z" fill="#FF0000" stroke="black"/>
<path d="M39.1189 15.9047C38.5759 16.1988 37.5352 16.5608 36.8113 16.7191C34.5036 17.2169 33.0104 19.2983 33.3724 21.4928C33.7118 23.529 35.6574 25.4972 38.9832 27.1488C40.9062 28.1216 41.4039 28.1669 42.5125 27.4429C43.4853 26.8094 45.4762 21.8548 45.4762 20.0222C45.4762 16.5608 42.06 14.3663 39.1189 15.9047ZM41.9243 17.8956C42.6935 18.2349 43.1007 19.1173 43.0555 20.2711C43.0329 21.1761 41.6528 24.9543 41.2003 25.4067C40.861 25.7461 37.6936 23.8231 36.6303 22.6919C35.7706 21.7643 35.6574 21.4476 35.7253 20.4747C35.8384 19.2757 37.7841 18.5969 38.87 19.3661C39.3451 19.6829 39.3678 19.6829 39.3678 19.2304C39.3678 18.6196 40.3406 17.6467 40.9288 17.6467C41.1777 17.6467 41.6302 17.7598 41.9243 17.8956Z" fill="black"/>
<path d="M51.0417 29.0944C49.3902 29.5017 46.4039 30.8817 44.6392 32.0808C43.8926 32.5785 42.4673 33.7776 41.4492 34.7278C40.4538 35.6554 39.5714 36.3567 39.5036 36.2436C39.3 35.9042 36.5172 34.6147 36.0195 34.6147C35.6123 34.6147 31.8114 38.2571 30.0468 40.3612L29.5038 41.0173L27.7844 40.4064C24.2098 39.1847 21.4949 39.1847 17.9203 40.4517L16.0878 41.1078L13.1919 38.1893C10.6354 35.6101 10.2282 35.2934 9.61731 35.3386C9.09696 35.3839 8.8481 35.5875 8.53136 36.221C7.53591 38.2798 6.78932 43.0534 6.78932 47.5103C6.78932 49.3429 6.72145 49.999 6.51783 49.999C6.35946 49.999 5.02462 49.8858 3.53144 49.7501C1.13329 49.5465 0.816559 49.5691 0.431954 49.9085C-0.0883977 50.3836 -0.111022 50.9718 0.341458 51.4243C0.680815 51.7863 1.58577 51.922 4.821 52.1709L6.78932 52.3066V54.0939C6.78932 55.0667 6.72145 55.9038 6.60833 55.9717C6.51783 56.0169 5.22823 56.3563 3.73505 56.6957C0.884431 57.3518 0.228338 57.6911 0.228338 58.483C0.228338 59.6594 0.861807 59.7273 4.21015 58.9354C5.52234 58.6187 6.65357 58.3698 6.69882 58.3698C6.74407 58.3698 6.78932 61.9218 6.78932 66.243C6.78932 72.057 6.85719 74.1837 7.06081 74.3876C7.26442 74.5909 15.3186 74.6591 41.9017 74.6591C75.8376 74.6591 76.4488 74.6591 76.6973 74.2289C76.8331 73.9574 76.9236 71.9442 76.9236 69.2746C76.9236 65.2023 76.8783 64.7498 76.5163 64.4101C75.9963 63.9353 75.4756 63.9124 75.0231 64.3878C74.7293 64.6816 74.6612 65.3833 74.6612 68.5729V72.3967H41.8565H9.05171V65.0888V57.759L10.8616 57.3744C12.7168 56.9898 13.3503 56.6052 13.3503 55.8812C13.3503 55.3609 12.762 54.75 12.2643 54.75C12.0607 54.75 11.3141 54.9084 10.6354 55.0894C9.95667 55.2704 9.3232 55.4287 9.23271 55.4287C9.11959 55.4287 9.05171 54.75 9.05171 53.9355V52.4197L10.6128 52.5781C12.0155 52.7138 12.2417 52.6912 12.6489 52.284C13.2371 51.6958 13.2371 51.5374 12.7394 50.9266C12.4227 50.5419 11.9928 50.4062 10.658 50.2931L8.98384 50.1573L9.11959 46.2886C9.23271 43.0082 9.75306 38.8227 10.0924 38.4607C10.1603 38.4155 11.4046 39.5919 12.8978 41.0625L15.6127 43.7548L16.3366 43.4606C21.4723 41.4245 23.9157 41.2887 27.7165 42.8724C28.7798 43.3023 29.73 43.6643 29.8205 43.6643C29.911 43.6643 31.4042 42.1711 33.1689 40.3612L36.3362 37.0581L37.2864 37.5332C37.8068 37.8047 38.2366 38.0988 38.2366 38.2119C38.2366 38.325 37.7615 39.1847 37.1959 40.1123C33.0784 46.9674 32.1282 56.1979 34.9562 61.7861C35.748 63.3471 37.49 65.157 38.9606 65.9486C40.7026 66.8988 42.9424 67.0122 44.6618 66.22C48.1233 64.6364 50.2273 60.3381 50.2273 54.8405C50.2273 48.7999 48.0328 43.7095 43.5533 39.3883L41.8338 37.7142L42.2637 37.1259C43.0782 36.04 46.4264 33.5061 48.2816 32.6011C52.6028 30.4519 57.4443 30.4519 60.6343 32.5785C63.1006 34.2074 64.5938 36.1305 66.4037 39.9087C67.693 42.6236 69.0281 44.0941 70.7475 44.6597C71.7653 44.9991 71.9915 45.2027 72.5798 46.2434C73.4171 47.6913 74.5031 48.6868 75.8829 49.2071C76.4488 49.4334 76.9236 49.7275 76.9236 49.8632C76.9236 49.999 76.6298 50.6098 76.2678 51.2433C74.0054 55.1572 70.7246 56.9445 66.1545 56.7409C64.2541 56.673 63.6888 56.5599 62.4442 55.9717C60.7474 55.1799 59.1637 53.6867 58.3719 52.1709C57.7158 50.9492 57.0145 50.6324 56.3357 51.2433C55.7701 51.7636 55.7701 52.1709 56.3584 53.2794C57.1276 54.7274 58.1457 55.8812 59.5483 56.9219C61.5393 58.3925 63.0101 58.8676 66.087 59.0259C68.9147 59.1843 69.0733 59.2522 71.2452 61.0168C72.263 61.8539 74.4126 62.012 75.4986 61.3336C77.1727 60.2929 77.5118 58.3925 76.313 56.7183L75.6343 55.7455L76.5845 54.7048C79.4574 51.5374 80.8378 46.1077 79.4122 43.7548C78.7112 42.6462 78.1229 42.4878 75.0008 42.6688C72.4217 42.8045 72.1502 42.7819 71.2 42.3294C70.0459 41.7638 69.3448 40.8589 68.3041 38.5739C66.0417 33.5513 62.4671 30.1804 58.2362 29.0718C56.5846 28.6419 52.8517 28.6646 51.0417 29.0944ZM42.7162 41.7186C44.7071 43.8226 46.1097 46.1755 47.0599 49.0488C47.9875 51.8315 48.2364 55.7002 47.6481 58.2341C46.4943 63.1432 43.3949 65.519 40.1597 64.0029C36.8339 62.4422 35.0014 57.1481 35.748 51.3564C36.2457 47.5556 37.7842 43.257 39.5941 40.6326C40.4538 39.3657 40.4764 39.3657 42.7162 41.7186ZM77.6023 45.3837C77.919 46.1981 77.8738 47.0579 77.5118 47.1936C76.856 47.4425 74.6612 45.9267 74.6612 45.2027C74.6612 45.0443 75.4756 44.9086 76.7655 44.8407C77.2403 44.7955 77.4442 44.9312 77.6023 45.3837ZM74.6612 58.7318C74.6612 59.6594 73.2132 59.7952 72.2407 58.9581C71.5167 58.3472 71.5167 58.3698 72.7384 57.7364L73.6434 57.2839L74.1634 57.759C74.4349 58.0079 74.6612 58.4377 74.6612 58.7318Z" fill="black"/>
<path d="M59.1186 39.8181C57.8969 40.0896 57.2408 40.6552 57.2408 41.4018C57.2408 42.2615 57.9421 42.6914 58.7566 42.3294C59.5484 41.9674 60.7249 42.0126 61.6298 42.4651C62.399 42.8271 62.4671 42.8271 62.8967 42.4199C63.6436 41.7412 63.4174 40.9267 62.3314 40.3611C61.2678 39.7955 60.1366 39.5919 59.1186 39.8181Z" fill="black"/>
<path d="M16.8343 48.0759C16.3818 48.7772 16.4723 51.2659 16.9927 51.6052C17.4451 51.8767 18.1917 51.8541 18.5085 51.5374C18.8705 51.1754 18.8705 48.1438 18.5085 47.7818C18.056 47.3293 17.2415 47.465 16.8343 48.0759Z" fill="black"/>
<path d="M26.5174 47.7818C26.1554 48.1438 26.1554 51.1754 26.5174 51.5374C26.9473 51.9673 28.0106 51.8768 28.2821 51.3791C28.3952 51.1302 28.5083 50.361 28.5083 49.6596C28.5083 48.9583 28.3952 48.1891 28.2821 47.9402C28.0106 47.4425 26.9473 47.352 26.5174 47.7818Z" fill="black"/>
<path d="M16.7438 54.5464C16.2008 55.5192 17.1963 57.5554 18.5537 58.2567C19.4813 58.7318 21.0197 58.6866 21.9021 58.1436C22.626 57.6911 22.626 57.6911 23.3726 58.1436C25.4767 59.4332 28.5083 57.8495 28.5083 55.4287C28.5083 54.5011 28.1689 54.0713 27.4676 54.0713C26.902 54.0713 26.6983 54.2975 26.359 55.3156C26.0649 56.1979 25.1825 56.6504 24.5491 56.2432C24.3002 56.0848 23.9608 55.6776 23.8025 55.3609C23.169 54.0713 22.0604 54.1165 21.3817 55.4287C20.8614 56.4468 20.2053 56.6957 19.4813 56.1753C19.1646 55.9265 18.8478 55.474 18.8252 55.1799C18.7121 54.388 18.3501 54.0713 17.6261 54.0713C17.2189 54.0713 16.9022 54.2297 16.7438 54.5464Z" fill="black"/>
</g>
<defs>
<clipPath id="clip0_13_10">
<rect width="80" height="75" fill="white"/>
</clipPath>
</defs>
</svg>
